<?xml version="1.0" standalone="no"?>
<!DOCTYPE svg PUBLIC "-//W3C//DTD SVG 20010904//EN"
 "http://www.w3.org/TR/2001/REC-SVG-20010904/DTD/svg10.dtd">
<svg version="1.0" xmlns="http://www.w3.org/2000/svg"
 width="500.000000pt" height="500.000000pt" viewBox="0 0 500.000000 500.000000"
 preserveAspectRatio="xMidYMid meet">

<g transform="translate(0.000000,500.000000) scale(0.100000,-0.100000)"
fill="#000000" stroke="none">
<path d="M2835 4974 c-142 -21 -289 -72 -386 -134 -70 -46 -89 -73 -89 -131 0
-70 40 -114 118 -129 369 -72 594 -178 662 -311 26 -50 26 -135 0 -217 -13
-43 -18 -76 -14 -103 6 -38 4 -41 -82 -135 -49 -54 -204 -224 -344 -379 -140
-155 -364 -402 -497 -548 l-243 -266 -53 6 c-75 8 -112 -13 -191 -105 -67 -77
-84 -118 -72 -167 3 -14 9 -35 12 -48 5 -19 -13 -35 -143 -127 -180 -128 -270
-198 -364 -287 -61 -57 -360 -384 -917 -1002 -168 -186 -202 -256 -202 -410 1
-226 151 -411 371 -457 129 -27 279 11 386 97 23 19 175 183 339 364 163 182
371 412 462 512 244 271 319 372 481 655 l102 176 58 -5 c73 -7 99 6 179 91
74 80 92 126 74 193 -12 45 -12 45 25 88 52 60 486 544 667 745 82 91 219 243
304 338 86 94 161 172 167 172 7 0 20 -10 31 -21 75 -85 165 -104 228 -48 l35
30 41 -32 c46 -37 49 -48 19 -75 -58 -53 -72 -160 -29 -230 27 -44 199 -208
264 -252 51 -35 142 -38 196 -6 42 24 479 500 517 562 35 59 36 134 2 190 -27
44 -233 237 -283 264 -49 27 -129 23 -187 -9 l-49 -26 -35 33 c-19 19 -35 38
-35 43 0 5 11 22 25 39 19 23 25 41 25 78 0 64 -4 69 -309 344 -135 122 -281
254 -325 294 -204 184 -368 274 -585 323 -83 18 -295 32 -356 23z m526 -1269
c61 -55 125 -112 142 -126 l31 -26 -380 -419 c-208 -230 -462 -510 -564 -623
-102 -112 -193 -214 -203 -227 -10 -13 -23 -24 -29 -24 -16 0 -287 244 -285
256 1 6 209 240 462 519 253 280 514 569 579 642 66 73 123 132 127 131 4 -2
58 -48 120 -103z m-1616 -1567 c-22 -23 -42 -45 -45 -48 -3 -3 -111 -122 -240
-265 -129 -143 -279 -309 -334 -370 -158 -174 -252 -278 -406 -450 -340 -378
-413 -455 -443 -477 -18 -12 -34 -25 -37 -28 -15 -17 -60 -39 -64 -31 -3 4 -1
36 5 70 16 87 46 128 315 423 126 139 270 298 320 353 330 370 432 475 554
577 71 59 392 288 405 288 5 0 -9 -19 -30 -42z"/>
<path d="M691 4931 c-52 -13 -82 -27 -103 -48 -37 -37 -47 -96 -24 -141 10
-18 115 -110 263 -230 137 -109 253 -205 259 -213 25 -31 35 -87 25 -126 -13
-47 -229 -316 -272 -338 -45 -24 -110 -19 -154 11 -21 14 -130 100 -241 190
-111 90 -219 175 -239 189 -65 44 -147 27 -182 -38 -15 -26 -18 -53 -16 -142
7 -349 230 -671 549 -791 126 -47 192 -55 414 -52 271 4 245 16 511 -248 189
-188 208 -204 241 -204 55 0 85 45 63 96 -7 16 -102 117 -211 225 -177 174
-207 200 -274 232 -105 50 -176 61 -303 46 -268 -31 -484 42 -652 222 -92 98
-151 213 -179 352 -15 73 -21 157 -11 157 4 0 340 -268 402 -321 132 -113 289
-118 403 -11 68 64 245 286 271 341 46 97 31 220 -36 298 -18 21 -132 119
-254 218 -256 207 -253 198 -56 199 141 1 209 -14 333 -75 146 -71 244 -169
316 -316 52 -104 66 -169 76 -333 10 -169 31 -248 89 -336 21 -33 147 -166
283 -301 256 -255 266 -262 315 -228 26 19 37 59 22 88 -6 12 -123 135 -259
272 -297 300 -289 288 -301 505 -10 166 -33 270 -84 379 -107 225 -299 386
-550 462 -102 31 -331 36 -434 10z"/>
<path d="M1613 3438 c-34 -16 -48 -60 -30 -94 21 -39 387 -400 414 -408 53
-16 111 53 84 101 -22 40 -408 413 -427 412 -10 0 -29 -5 -41 -11z"/>
<path d="M3005 2525 c-55 -54 -101 -3 894 -1000 840 -841 920 -924 935 -969
36 -110 9 -223 -72 -299 -27 -24 -66 -50 -88 -58 -53 -18 -160 -16 -209 6 -29
12 -273 250 -905 881 -833 832 -867 864 -902 864 -43 0 -68 -27 -68 -75 0 -27
99 -129 867 -896 1006 -1004 922 -934 1118 -934 105 0 114 2 178 33 126 63
213 179 238 320 14 80 0 165 -42 252 -29 59 -110 143 -948 983 -993 995 -941
948 -996 892z"/>
<path d="M2760 2260 c-12 -12 -20 -33 -20 -52 0 -30 61 -94 698 -731 l699
-698 38 3 c49 4 82 43 69 82 -5 14 -322 339 -704 721 -636 637 -697 695 -727
695 -20 0 -41 -8 -53 -20z"/>
</g>
</svg>
